<svg enable-background="new 0 0 32.738 32.738" version="1.1" viewBox="0 0 32.738 32.738" xml:space="preserve" xmlns="http://www.w3.org/2000/svg">
<path d="m31.917 17.595c-0.911-0.691-2.213-0.519-2.91 0.396-0.066 0.093-0.12 0.19-0.174 0.285l-5.095-0.863c0.048-0.353 0.08-0.709 0.08-1.075 0-1.481-0.412-2.863-1.118-4.053l3.248-2.101c0.207 0.14 0.46 0.216 0.728 0.191 0.618-0.057 1.072-0.599 1.018-1.221-0.056-0.618-0.603-1.071-1.221-1.016s-1.071 0.603-1.017 1.221c5e-3 0.062 0.021 0.117 0.033 0.178l-3.227 2.083c-0.644-0.87-1.454-1.604-2.393-2.151l2.318-3.662c0.247 0.04 0.509 3e-3 0.742-0.132 0.536-0.312 0.722-0.996 0.409-1.532-0.311-0.539-0.997-0.725-1.534-0.413-0.536 0.311-0.721 0.997-0.41 1.536 0.03 0.053 0.064 0.099 0.104 0.146l-2.335 3.687c-0.79-0.361-1.645-0.604-2.547-0.689l0.474-2.8c0.182-0.044 0.35-0.135 0.47-0.291 0.274-0.364 0.207-0.881-0.156-1.155-0.363-0.278-0.881-0.207-1.157 0.155-0.274 0.362-0.205 0.881 0.156 1.156 0.035 0.023 0.076 0.032 0.112 0.055l-0.484 2.853c-0.061-2e-3 -0.119-9e-3 -0.179-9e-3 -1.034 0-2.019 0.202-2.922 0.562l-2.235-4.106c0.217-0.275 0.35-0.619 0.344-0.997-0.014-0.873-0.729-1.57-1.602-1.552-0.87 0.014-1.564 0.729-1.551 1.601 0.013 0.87 0.729 1.562 1.601 1.55 0.087-2e-3 0.17-0.017 0.253-0.03l2.184 4.012c-1.092 0.617-2.024 1.488-2.715 2.53l-3.263-2.56c0.065-0.239 0.053-0.503-0.055-0.749-0.255-0.565-0.918-0.818-1.484-0.563-0.568 0.254-0.82 0.919-0.566 1.486 0.257 0.564 0.921 0.816 1.487 0.562 0.055-0.026 0.105-0.06 0.155-0.092l3.316 2.607c-0.49 0.937-0.8 1.982-0.884 3.096l-4.895-9e-3c-0.137-0.322-0.376-0.605-0.709-0.779-0.771-0.407-1.727-0.113-2.13 0.659-0.405 0.771-0.109 1.725 0.659 2.129 0.771 0.408 1.726 0.11 2.132-0.661 0.041-0.075 0.067-0.153 0.095-0.234l4.845 0.012c0.04 0.631 0.146 1.247 0.325 1.833l-3.131 1.206c-0.173-0.179-0.407-0.303-0.675-0.335-0.616-0.07-1.171 0.372-1.242 0.986-0.071 0.616 0.37 1.178 0.988 1.246 0.615 0.069 1.171-0.374 1.241-0.989 6e-3 -0.061 5e-3 -0.117 4e-3 -0.182l3.084-1.188c0.611 1.449 1.641 2.683 2.937 3.542l-1.512 1.561c-0.233-0.089-0.497-0.106-0.752-0.022-0.592 0.197-0.909 0.831-0.716 1.417 0.193 0.59 0.83 0.913 1.418 0.722 0.59-0.198 0.908-0.833 0.717-1.424-0.021-0.058-0.045-0.11-0.072-0.167l1.619-1.67c0.771 0.407 1.617 0.687 2.512 0.819l-0.431 4.041c-0.244 0.056-0.473 0.192-0.639 0.401-0.38 0.491-0.292 1.193 0.2 1.577 0.492 0.381 1.197 0.289 1.578-0.201 0.379-0.492 0.288-1.195-0.203-1.578-0.048-0.033-0.099-0.062-0.149-0.093l0.433-4.068c0.136 9e-3 0.27 0.021 0.408 0.021 1.035 0 2.021-0.203 2.93-0.562l0.804 3.58c-0.201 0.146-0.36 0.354-0.431 0.615-0.16 0.6 0.193 1.215 0.794 1.376 0.599 0.157 1.216-0.193 1.376-0.795 0.16-0.601-0.196-1.215-0.796-1.376-0.059-0.016-0.117-0.022-0.178-0.029l-0.832-3.706c0.579-0.301 1.111-0.671 1.597-1.103l1.102 1.552c-0.099 0.156-0.15 0.338-0.125 0.537 0.061 0.448 0.477 0.766 0.929 0.708 0.453-0.063 0.768-0.479 0.708-0.93-0.062-0.453-0.479-0.768-0.931-0.707-0.042 6e-3 -0.075 0.028-0.115 0.04l-1.137-1.602c0.838-0.854 1.479-1.896 1.864-3.062l5.241 0.891c0.108 0.451 0.356 0.869 0.751 1.168 0.913 0.693 2.216 0.52 2.911-0.395 0.692-0.911 0.514-2.213-0.399-2.908zm-18.54-1.626c-0.655 0-1.19-0.534-1.19-1.194 0-0.657 0.535-1.188 1.19-1.188 0.658 0 1.192 0.53 1.192 1.188 0 0.659-0.533 1.194-1.192 1.194zm3.071 2.588c-0.482 0-0.874-0.392-0.874-0.873 0-0.486 0.392-0.875 0.874-0.875 0.483 0 0.875 0.388 0.875 0.875-1e-3 0.484-0.392 0.873-0.875 0.873zm3.246-3.703c-0.712 0-1.289-0.577-1.289-1.287 0-0.715 0.577-1.293 1.289-1.293s1.29 0.578 1.29 1.293c0 0.71-0.577 1.287-1.29 1.287z" />
</svg>
